<?xml version="1.0" standalone="no"?>
<!DOCTYPE svg PUBLIC "-//W3C//DTD SVG 20010904//EN"
 "http://www.w3.org/TR/2001/REC-SVG-20010904/DTD/svg10.dtd">
<svg version="1.0" xmlns="http://www.w3.org/2000/svg"
 width="2000.000000pt" height="2000.000000pt" viewBox="0 0 2000.000000 2000.000000"
 preserveAspectRatio="xMidYMid meet">
<metadata>
Created by potrace 1.11, written by Peter Selinger 2001-2013
</metadata>
<g transform="translate(0.000000,2000.000000) scale(0.100000,-0.100000)"
fill="#000000" stroke="none">
<path d="M1990 19988 c-499 -47 -990 -283 -1351 -649 -358 -363 -579 -836
-628 -1343 -15 -154 -15 -15838 0 -15992 103 -1059 945 -1897 2004 -1994 153
-14 15818 -14 15970 0 882 81 1629 677 1905 1520 44 134 85 331 100 479 14
147 14 15837 -1 15987 -103 1058 -944 1897 -1999 1993 -146 14 -15859 13
-16000 -1z m9245 -1798 c1311 -59 2361 -295 3236 -726 251 -124 390 -204 609
-349 1066 -709 1722 -1700 1979 -2991 161 -804 157 -1771 -9 -2594 -255 -1262
-916 -2260 -1960 -2957 -829 -553 -1904 -899 -3200 -1027 -483 -48 -504 -49
-2292 -53 l-1698 -4 0 -2845 0 -2844 -2110 0 -2110 0 0 8200 0 8200 3668 0
c2260 0 3751 -4 3887 -10z"/>
<path d="M7907 15134 c-4 -4 -7 -1035 -7 -2291 l0 -2284 1378 4 c1467 4 1401
2 1687 52 663 116 1176 423 1486 889 223 335 336 710 358 1186 35 761 -159
1353 -583 1775 -376 374 -869 578 -1586 656 -120 13 -2720 26 -2733 13z"/>
</g>
</svg>
